<svg version="1.1" id="Layer_1" xmlns="http://www.w3.org/2000/svg" xmlns:xlink="http://www.w3.org/1999/xlink" x="0px" y="0px"
	 width="100%" viewBox="0 0 512 512" enable-background="new 0 0 512 512" xml:space="preserve">
<path fill="#FFFFFF" opacity="1.000000" stroke="none" 
	d="
M352.000000,1.000004 
	C405.655273,1.000000 459.310547,1.000000 512.982910,1.000000 
	C512.982910,171.619064 512.982910,342.238129 512.982910,512.928589 
	C342.417175,512.928589 171.834305,512.928589 1.125724,512.928589 
	C1.125724,342.453461 1.125724,171.906769 1.125724,1.000000 
	C111.023064,1.000000 221.046524,1.000000 331.286652,1.283862 
	C327.337463,3.053315 323.171631,4.538906 318.627686,6.030380 
	C316.401672,6.736115 314.428528,7.213463 312.725830,8.171491 
	C300.585327,15.002367 288.486572,21.907866 276.400269,28.834547 
	C257.842926,39.469818 239.298782,50.128178 220.762833,60.800724 
	C202.084747,71.555099 183.229660,82.020088 164.821274,93.218666 
	C151.984314,101.027908 138.796356,108.731224 127.488403,118.480560 
	C106.701248,136.402557 91.899620,159.110641 81.867569,184.648743 
	C78.142891,194.130478 75.957970,204.217056 72.898155,214.382294 
	C71.824783,221.431641 70.166412,228.123764 70.142197,234.821823 
	C69.930298,293.434998 69.967972,352.049255 70.049408,410.663055 
	C70.061607,419.445129 70.101051,428.298340 71.172920,436.989746 
	C72.507576,447.812042 75.616463,458.551392 84.460838,465.640076 
	C93.316093,472.737457 103.094116,478.736237 112.752502,484.759888 
	C118.904907,488.596924 125.575851,491.602539 132.066864,495.129333 
	C132.210449,495.328369 132.301437,495.379028 132.392426,495.429688 
	C132.254776,495.291931 132.117126,495.154205 131.964264,494.655579 
	C123.878296,481.139832 120.910973,466.454010 121.190346,451.446350 
	C122.489662,381.646881 117.517334,311.756561 124.399033,241.781891 
	C125.415726,239.157959 126.260757,236.812332 126.929268,234.417435 
	C135.123901,205.060211 150.030258,179.466858 170.498535,157.045532 
	C182.150360,144.281906 196.125671,134.586609 211.160889,126.146332 
	C234.032959,113.306694 256.628204,99.973785 279.336487,86.842545 
	C301.758087,73.877075 324.151489,60.862534 346.601929,47.947216 
	C358.234741,41.255074 369.547943,33.837841 383.391052,30.973473 
	C389.592773,30.131115 395.377930,29.287600 401.163116,28.444082 
	C401.321808,28.110008 401.480499,27.775932 401.639191,27.441858 
	C385.092804,18.627909 368.546387,9.813958 352.000000,1.000004 
M306.793365,320.965698 
	C311.464447,324.037415 312.793304,328.904541 312.941162,333.925537 
	C313.308441,346.398834 313.185577,358.885956 313.454132,371.363342 
	C313.492950,373.166382 314.604584,374.946320 315.219757,376.736969 
	C317.154907,376.038513 319.128510,375.427094 321.005432,374.596924 
	C321.715240,374.283020 322.207275,373.469635 322.789124,372.874634 
	C358.854950,335.989624 382.572418,292.570221 391.515656,241.562515 
	C395.080078,221.233047 395.189178,200.858322 388.349640,180.296021 
	C388.315063,179.866898 388.280457,179.437775 388.702972,178.526306 
	C390.330536,175.630783 391.926270,172.716827 393.590790,169.842712 
	C405.654297,149.012970 417.787628,128.223373 429.761749,107.342445 
	C432.451691,102.651588 436.070953,97.831764 436.697021,92.754959 
	C438.064331,81.666656 436.461914,70.569313 431.902832,60.146687 
	C426.630585,48.093571 418.432922,39.458752 404.929291,36.772228 
	C393.338898,34.466339 382.306030,36.520142 372.053284,41.632633 
	C360.026337,47.629803 348.417419,54.480320 336.734283,61.148369 
	C318.278503,71.681839 299.909760,82.367790 281.508209,92.996223 
	C261.239014,104.703400 241.025360,116.507988 220.690140,128.099289 
	C206.689240,136.079941 192.724167,144.080734 181.083252,155.437775 
	C163.009766,173.070526 149.233932,193.675308 139.613129,216.962753 
	C132.081940,235.192261 127.822319,254.094101 127.907486,274.047516 
	C128.163467,334.022614 128.029388,393.999512 127.970253,453.975647 
	C127.960655,463.712067 129.288696,473.160492 133.177887,482.108459 
	C138.839340,495.133820 147.950714,504.207489 162.653580,505.935516 
	C173.271194,507.183380 183.661453,505.321777 193.187836,500.654449 
	C199.728745,497.449829 206.530594,494.622345 210.551605,487.277649 
	C220.831940,468.499847 231.968460,450.192596 242.592804,431.600189 
	C245.687439,426.184662 248.210464,420.442535 251.517197,414.405792 
	C259.486877,412.200958 260.019623,405.597809 261.203979,398.817352 
	C276.178223,372.792053 291.152466,346.766754 306.793365,320.965698 
z"/>
<path fill="#DCF1F9" opacity="1.000000" stroke="none" 
	d="
M351.531616,1.000004 
	C368.546387,9.813958 385.092804,18.627909 401.639191,27.441858 
	C401.480499,27.775932 401.321808,28.110008 401.163116,28.444082 
	C395.377930,29.287600 389.592773,30.131115 383.219696,30.648617 
	C372.285126,27.882196 361.903748,25.577879 351.603821,22.953989 
	C344.632080,21.177944 337.382050,19.760529 330.997833,16.657461 
	C326.370880,14.408478 322.959320,9.658966 319.005768,6.024498 
	C323.171631,4.538906 327.337463,3.053315 331.751648,1.283862 
	C338.354401,1.000000 344.708801,1.000000 351.531616,1.000004 
z"/>
<path fill="#EEF9FB" opacity="1.000000" stroke="none" 
	d="
M250.995483,414.850128 
	C248.210464,420.442535 245.687439,426.184662 242.592804,431.600189 
	C231.968460,450.192596 220.831940,468.499847 210.551605,487.277649 
	C206.530594,494.622345 199.728745,497.449829 193.187836,500.654449 
	C183.661453,505.321777 173.271194,507.183380 162.653580,505.935516 
	C147.950714,504.207489 138.839340,495.133820 133.177887,482.108459 
	C129.288696,473.160492 127.960655,463.712067 127.970253,453.975647 
	C128.029388,393.999512 128.163467,334.022614 127.907486,274.047516 
	C127.822319,254.094101 132.081940,235.192261 139.613129,216.962753 
	C149.233932,193.675308 163.009766,173.070526 181.083252,155.437775 
	C192.724167,144.080734 206.689240,136.079941 220.690140,128.099289 
	C241.025360,116.507988 261.239014,104.703400 281.508209,92.996223 
	C299.909760,82.367790 318.278503,71.681839 336.734283,61.148369 
	C348.417419,54.480320 360.026337,47.629803 372.053284,41.632633 
	C382.306030,36.520142 393.338898,34.466339 404.929291,36.772228 
	C418.432922,39.458752 426.630585,48.093571 431.902832,60.146687 
	C436.461914,70.569313 438.064331,81.666656 436.697021,92.754959 
	C436.070953,97.831764 432.451691,102.651588 429.761749,107.342445 
	C417.787628,128.223373 405.654297,149.012970 393.590790,169.842712 
	C391.926270,172.716827 390.330536,175.630783 388.328430,178.420441 
	C375.819336,145.191956 347.138092,131.908051 312.497742,141.929291 
	C289.073273,148.705811 269.685059,162.224594 252.564682,179.012619 
	C216.552750,214.325439 192.849701,256.621063 182.578796,306.128357 
	C177.969986,328.343445 177.021118,350.665771 184.068588,372.651245 
	C190.336121,392.203613 201.888367,406.904968 222.353638,413.205627 
	C231.805374,416.115509 241.382034,415.476807 250.995483,414.850128 
z"/>
<path fill="#CCE6F2" opacity="1.000000" stroke="none" 
	d="
M318.627686,6.030382 
	C322.959320,9.658966 326.370880,14.408478 330.997833,16.657461 
	C337.382050,19.760529 344.632080,21.177944 351.603821,22.953989 
	C361.903748,25.577879 372.285126,27.882196 382.803162,30.647457 
	C369.547943,33.837841 358.234741,41.255074 346.601929,47.947216 
	C324.151489,60.862534 301.758087,73.877075 279.336487,86.842545 
	C256.628204,99.973785 234.032959,113.306694 211.160889,126.146332 
	C196.125671,134.586609 182.150360,144.281906 170.498535,157.045532 
	C150.030258,179.466858 135.123901,205.060211 126.929268,234.417435 
	C126.260757,236.812332 125.415726,239.157959 124.026291,241.739685 
	C115.764824,237.634094 108.159241,233.262146 100.487122,229.010284 
	C91.378265,223.962189 82.212166,219.017380 73.070869,214.027817 
	C75.957970,204.217056 78.142891,194.130478 81.867569,184.648743 
	C91.899620,159.110641 106.701248,136.402557 127.488403,118.480560 
	C138.796356,108.731224 151.984314,101.027908 164.821274,93.218666 
	C183.229660,82.020088 202.084747,71.555099 220.762833,60.800724 
	C239.298782,50.128178 257.842926,39.469818 276.400269,28.834547 
	C288.486572,21.907866 300.585327,15.002367 312.725830,8.171491 
	C314.428528,7.213463 316.401672,6.736115 318.627686,6.030382 
z"/>
<path fill="#020202" opacity="1.000000" stroke="none" 
	d="
M251.256348,414.627960 
	C241.382034,415.476807 231.805374,416.115509 222.353638,413.205627 
	C201.888367,406.904968 190.336121,392.203613 184.068588,372.651245 
	C177.021118,350.665771 177.969986,328.343445 182.578796,306.128357 
	C192.849701,256.621063 216.552750,214.325439 252.564682,179.012619 
	C269.685059,162.224594 289.073273,148.705811 312.497742,141.929291 
	C347.138092,131.908051 375.819336,145.191956 388.099854,178.661621 
	C388.280457,179.437775 388.315063,179.866898 388.050354,180.676544 
	C384.481903,186.409317 381.157745,191.728851 377.954712,197.120361 
	C370.263245,210.067001 362.628662,223.047409 354.892212,235.582413 
	C354.618011,224.249619 354.118835,213.502655 345.093384,205.393723 
	C344.173889,204.567627 344.328613,202.070511 344.612122,200.459183 
	C346.270142,191.034561 346.515808,181.772415 342.239349,172.070663 
	C339.684448,173.922363 337.119812,175.241165 335.263641,177.223358 
	C328.563324,184.378464 322.126465,191.779572 315.526642,199.030014 
	C314.339935,200.333679 313.033173,201.955597 311.476807,202.430099 
	C292.858276,208.106705 276.978516,218.424850 262.137329,230.702042 
	C260.429962,232.114410 257.305695,232.601608 254.977036,232.329819 
	C247.536987,231.461456 240.337006,231.817978 233.574600,235.174500 
	C232.007324,235.952423 230.054489,237.726837 229.874924,239.232986 
	C228.882416,247.557983 227.607285,255.979309 228.007843,264.291534 
	C228.247253,269.259583 227.817001,273.391083 225.772278,277.889709 
	C217.350189,296.419220 215.534393,315.563538 222.029175,335.072906 
	C224.905197,343.712036 230.964905,349.196228 240.361847,349.464050 
	C244.923630,349.594116 249.592331,348.619904 254.089020,347.600403 
	C258.129822,346.684265 262.001556,345.022491 266.198273,343.605042 
	C264.577179,348.474792 262.424774,352.614014 261.937653,356.940674 
	C261.177277,363.694214 257.049774,367.496948 252.144424,371.087860 
	C241.370804,378.974579 237.269531,378.809845 227.616287,369.985809 
	C221.339661,364.248383 211.865677,365.918488 207.828308,373.856232 
	C209.109543,374.508331 210.327438,375.509338 211.680557,375.750000 
	C217.145630,376.721832 220.393204,380.314667 222.858566,384.838257 
	C228.665817,395.493805 234.233795,397.539429 245.049774,392.280121 
	C250.164764,389.792938 254.915588,386.556885 259.875671,383.634064 
	C260.121796,388.787140 260.366394,393.908264 260.611023,399.029358 
	C260.019623,405.597809 259.486877,412.200958 251.256348,414.627960 
z"/>
<path fill="#EDF8FA" opacity="1.000000" stroke="none" 
	d="
M260.907501,398.923340 
	C260.366394,393.908264 260.121796,388.787140 259.875671,383.634064 
	C254.915588,386.556885 250.164764,389.792938 245.049774,392.280121 
	C234.233795,397.539429 228.665817,395.493805 222.858566,384.838257 
	C220.393204,380.314667 217.145630,376.721832 211.680557,375.750000 
	C210.327438,375.509338 209.109543,374.508331 207.828308,373.856232 
	C211.865677,365.918488 221.339661,364.248383 227.616287,369.985809 
	C237.269531,378.809845 241.370804,378.974579 252.144424,371.087860 
	C257.049774,367.496948 261.177277,363.694214 261.937653,356.940674 
	C262.424774,352.614014 264.577179,348.474792 266.198273,343.605042 
	C262.001556,345.022491 258.129822,346.684265 254.089020,347.600403 
	C249.592331,348.619904 244.923630,349.594116 240.361847,349.464050 
	C230.964905,349.196228 224.905197,343.712036 222.029175,335.072906 
	C215.534393,315.563538 217.350189,296.419220 225.772278,277.889709 
	C227.817001,273.391083 228.247253,269.259583 228.007843,264.291534 
	C227.607285,255.979309 228.882416,247.557983 229.874924,239.232986 
	C230.054489,237.726837 232.007324,235.952423 233.574600,235.174500 
	C240.337006,231.817978 247.536987,231.461456 254.977036,232.329819 
	C257.305695,232.601608 260.429962,232.114410 262.137329,230.702042 
	C276.978516,218.424850 292.858276,208.106705 311.476807,202.430099 
	C313.033173,201.955597 314.339935,200.333679 315.526642,199.030014 
	C322.126465,191.779572 328.563324,184.378464 335.263641,177.223358 
	C337.119812,175.241165 339.684448,173.922363 342.239349,172.070663 
	C346.515808,181.772415 346.270142,191.034561 344.612122,200.459183 
	C344.328613,202.070511 344.173889,204.567627 345.093384,205.393723 
	C354.118835,213.502655 354.618011,224.249619 354.770935,235.946991 
	C354.668762,237.498795 354.608978,238.254196 354.242920,239.102173 
	C352.417053,241.539581 350.794525,243.824692 349.393982,246.238602 
	C337.501801,266.735504 325.613892,287.235168 313.823364,307.790558 
	C311.959106,311.040680 310.589539,314.574585 308.861084,318.236023 
	C307.862823,319.243683 306.994781,319.992584 306.126709,320.741455 
	C291.152466,346.766754 276.178223,372.792053 260.907501,398.923340 
z"/>
<path fill="#BFD9E8" opacity="1.000000" stroke="none" 
	d="
M72.898155,214.382294 
	C82.212166,219.017380 91.378265,223.962189 100.487122,229.010284 
	C108.159241,233.262146 115.764824,237.634094 123.772606,241.995087 
	C117.517334,311.756561 122.489662,381.646881 121.190346,451.446350 
	C120.910973,466.454010 123.878296,481.139832 131.974030,494.647644 
	C131.998993,495.000580 132.014282,494.980957 132.014282,494.980957 
	C125.575851,491.602539 118.904907,488.596924 112.752502,484.759888 
	C103.094116,478.736237 93.316093,472.737457 84.460838,465.640076 
	C75.616463,458.551392 72.507576,447.812042 71.172920,436.989746 
	C70.101051,428.298340 70.061607,419.445129 70.049408,410.663055 
	C69.967972,352.049255 69.930298,293.434998 70.142197,234.821823 
	C70.166412,228.123764 71.824783,221.431641 72.898155,214.382294 
z"/>
<path fill="#31383A" opacity="1.000000" stroke="none" 
	d="
M306.460022,320.853577 
	C306.994781,319.992584 307.862823,319.243683 309.187866,318.148132 
	C336.362793,298.233887 353.004578,272.923767 354.549194,239.009613 
	C354.608978,238.254196 354.668762,237.498795 354.849854,236.378799 
	C362.628662,223.047409 370.263245,210.067001 377.954712,197.120361 
	C381.157745,191.728851 384.481903,186.409317 388.122131,180.995483 
	C395.189178,200.858322 395.080078,221.233047 391.515656,241.562515 
	C382.572418,292.570221 358.854950,335.989624 322.789124,372.874634 
	C322.207275,373.469635 321.715240,374.283020 321.005432,374.596924 
	C319.128510,375.427094 317.154907,376.038513 315.219757,376.736969 
	C314.604584,374.946320 313.492950,373.166382 313.454132,371.363342 
	C313.185577,358.885956 313.308441,346.398834 312.941162,333.925537 
	C312.793304,328.904541 311.464447,324.037415 306.460022,320.853577 
z"/>
<path fill="#BFD9E8" opacity="1.000000" stroke="none" 
	d="
M131.989227,495.008545 
	C132.117126,495.154205 132.254776,495.291931 132.392426,495.429688 
	C132.301437,495.379028 132.210449,495.328369 132.066864,495.129333 
	C132.014282,494.980957 131.998993,495.000580 131.989227,495.008545 
z"/>
<path fill="#FCFDFD" opacity="1.000000" stroke="none" 
	d="
M354.242920,239.102173 
	C353.004578,272.923767 336.362793,298.233887 309.318054,317.889374 
	C310.589539,314.574585 311.959106,311.040680 313.823364,307.790558 
	C325.613892,287.235168 337.501801,266.735504 349.393982,246.238602 
	C350.794525,243.824692 352.417053,241.539581 354.242920,239.102173 
z"/>
</svg>