<svg version="1.1" id="Layer_1" xmlns="http://www.w3.org/2000/svg" xmlns:xlink="http://www.w3.org/1999/xlink" x="0px" y="0px"
	 width="100%" viewBox="0 0 512 512" enable-background="new 0 0 512 512" xml:space="preserve">
<path fill="#000000" opacity="1.000000" stroke="none" 
	d="
M513.000000,188.000000 
	C513.000000,296.640259 513.000000,404.780518 513.000000,512.960388 
	C342.401398,512.960388 171.802780,512.960388 1.102087,512.960388 
	C1.102087,342.443115 1.102087,171.886124 1.102087,1.164572 
	C171.666534,1.164572 342.333252,1.164572 513.000000,1.164572 
	C513.000000,63.197178 513.000000,125.348587 513.000000,188.000000 
M106.212029,79.976540 
	C99.395515,86.621933 92.579002,93.267326 85.155701,99.558250 
	C83.153305,98.708427 81.221809,97.449898 79.134804,97.087891 
	C73.586800,96.125534 70.951584,100.896332 68.546638,104.147766 
	C57.569538,118.988548 47.641960,134.462082 39.730934,151.300613 
	C27.074795,178.239014 19.462250,206.562286 17.320726,235.975494 
	C15.346638,263.089050 16.654516,290.330811 23.501629,316.948975 
	C29.902176,341.831146 39.548805,365.319916 53.025166,387.278381 
	C66.750740,409.642822 84.096771,428.811768 104.201080,445.403748 
	C120.658119,458.985687 138.861176,469.943665 158.603180,478.322510 
	C182.800522,488.592285 207.978729,495.057465 234.118149,496.757538 
	C248.485184,497.691895 263.014771,496.628662 277.446564,495.947266 
	C299.053070,494.927185 319.746490,489.037720 340.069733,482.274933 
	C360.356934,475.524109 378.957855,465.122620 396.473267,452.810150 
	C416.142944,438.983307 433.165192,422.251221 447.750153,403.364075 
	C462.566528,384.177216 474.174255,362.954010 482.580231,340.028503 
	C490.246460,319.120483 495.392822,297.637390 496.757812,275.504364 
	C497.634033,261.296387 496.589996,246.943542 495.956512,232.675613 
	C495.183716,215.270340 491.286530,198.336609 485.757996,181.935318 
	C472.148865,141.561798 449.876953,106.795799 417.902527,78.237289 
	C397.445465,59.965733 374.784088,45.532272 349.598541,34.840996 
	C331.416992,27.122942 312.545654,21.509787 293.023376,19.300034 
	C276.263885,17.403008 259.244232,16.946894 242.364441,17.247572 
	C229.390778,17.478674 216.309311,19.094282 203.535187,21.481989 
	C179.843994,25.910275 157.617294,34.770340 136.427826,46.237991 
	C130.572433,49.406902 129.152283,54.987782 132.207977,60.983807 
	C128.389404,63.623089 124.570831,66.262367 120.229744,68.451820 
	C117.389511,67.528923 114.346695,65.453934 111.749062,65.910690 
	C105.329079,67.039551 103.876640,71.936935 106.212029,79.976540 
z"/>
<path fill="#465C66" opacity="1.000000" stroke="none" 
	d="
M132.915237,60.774723 
	C129.152283,54.987782 130.572433,49.406902 136.427826,46.237991 
	C157.617294,34.770340 179.843994,25.910275 203.535187,21.481989 
	C216.309311,19.094282 229.390778,17.478674 242.364441,17.247572 
	C259.244232,16.946894 276.263885,17.403008 293.023376,19.300034 
	C312.545654,21.509787 331.416992,27.122942 349.598541,34.840996 
	C374.784088,45.532272 397.445465,59.965733 417.902527,78.237289 
	C449.876953,106.795799 472.148865,141.561798 485.757996,181.935318 
	C491.286530,198.336609 495.183716,215.270340 495.956512,232.675613 
	C496.589996,246.943542 497.634033,261.296387 496.757812,275.504364 
	C495.392822,297.637390 490.246460,319.120483 482.580231,340.028503 
	C474.174255,362.954010 462.566528,384.177216 447.750153,403.364075 
	C433.165192,422.251221 416.142944,438.983307 396.473267,452.810150 
	C378.957855,465.122620 360.356934,475.524109 340.069733,482.274933 
	C319.746490,489.037720 299.053070,494.927185 277.446564,495.947266 
	C263.014771,496.628662 248.485184,497.691895 234.118149,496.757538 
	C207.978729,495.057465 182.800522,488.592285 158.603180,478.322510 
	C138.861176,469.943665 120.658119,458.985687 104.201080,445.403748 
	C84.096771,428.811768 66.750740,409.642822 53.025166,387.278381 
	C39.548805,365.319916 29.902176,341.831146 23.501629,316.948975 
	C16.654516,290.330811 15.346638,263.089050 17.320726,235.975494 
	C19.462250,206.562286 27.074795,178.239014 39.730934,151.300613 
	C47.641960,134.462082 57.569538,118.988548 68.546638,104.147766 
	C70.951584,100.896332 73.586800,96.125534 79.134804,97.087891 
	C81.221809,97.449898 83.153305,98.708427 85.473816,100.138824 
	C87.769592,105.024948 86.438904,108.509483 83.745598,112.194916 
	C76.988319,121.441338 69.953880,130.581070 64.192764,140.442520 
	C42.656124,177.307419 32.523060,217.268326 33.126160,260.412109 
	C34.445168,274.063904 34.766167,287.487579 37.419285,300.433319 
	C50.428402,363.910461 84.558540,413.144562 139.627106,447.310669 
	C152.128845,455.067078 166.049759,460.581177 179.482620,466.768829 
	C184.624069,469.137207 190.313065,466.876099 190.666580,462.159485 
	C191.341049,453.161255 190.862320,444.076538 190.862320,434.768341 
	C187.031265,435.026489 183.882416,435.264740 180.730347,435.447083 
	C147.994904,437.341095 122.647560,421.481201 112.461281,394.073395 
	C107.961800,381.966827 100.399254,371.944305 89.219131,364.862518 
	C86.189201,362.943268 83.423836,360.289093 81.221626,357.442596 
	C75.639999,350.227936 78.050865,341.617920 86.862434,339.314178 
	C92.284813,337.896515 98.515312,337.635376 103.998863,338.748016 
	C120.578629,342.112213 131.656082,353.066315 140.366989,367.003754 
	C151.720093,385.168701 168.781738,391.124115 189.080704,384.289581 
	C190.517258,383.805878 192.440750,382.880402 192.895035,381.687195 
	C195.113205,375.861053 196.909134,369.874176 198.960831,363.619812 
	C196.193085,363.043243 193.607513,362.539856 191.039261,361.959839 
	C188.442200,361.373352 185.852478,360.748474 183.276352,360.076019 
	C156.226837,353.015656 133.382477,339.808533 118.365593,315.331024 
	C107.003830,296.811371 102.802414,276.233093 101.276772,254.903702 
	C99.331589,227.708939 104.644829,202.563812 121.781105,180.611115 
	C122.799988,179.305878 123.244003,176.872238 122.839569,175.240219 
	C118.551979,157.938446 119.606560,140.894226 124.775398,123.975372 
	C128.892975,110.497543 132.148239,108.388390 146.101303,110.227715 
	C146.760864,110.314667 147.409683,110.480087 148.066986,110.587700 
	C165.868317,113.502060 181.332092,121.879303 196.520157,131.030930 
	C198.678574,132.331497 201.923126,133.113968 204.304596,132.567047 
	C239.493637,124.485741 274.607452,124.477722 309.788391,132.601425 
	C312.049896,133.123642 314.994415,132.359070 317.173004,131.284500 
	C327.456055,126.212563 337.387115,120.390068 347.824982,115.680290 
	C356.808929,111.626556 366.448578,109.483170 376.488373,110.007538 
	C381.616608,110.275391 385.212555,112.254906 387.072449,117.463120 
	C393.780884,136.248383 396.024170,155.264114 391.261383,174.894928 
	C390.804474,176.778198 391.453552,179.527267 392.623505,181.109741 
	C399.623779,190.578232 405.131683,200.766022 408.584595,212.028946 
	C414.592041,231.624344 413.902161,251.553558 410.851074,271.440002 
	C404.076233,315.596710 380.186249,345.368683 336.663025,358.164490 
	C329.532043,360.260956 322.266693,361.900421 314.842133,363.807953 
	C314.987213,364.548645 314.978699,365.233734 315.249512,365.780457 
	C321.399414,378.195709 323.001587,391.468506 322.900238,405.114166 
	C322.769043,422.776184 322.734802,440.439514 322.780914,458.101990 
	C322.802032,466.188721 326.889771,468.907166 334.412262,466.115204 
	C420.425385,434.191620 478.741058,353.108459 480.795990,261.498169 
	C481.779022,217.673676 470.591370,176.802734 446.927551,139.745636 
	C441.099213,130.618530 433.595398,122.561340 426.931580,113.662308 
	C424.716431,110.508942 422.623016,107.520432 420.118073,104.929817 
	C378.611084,62.002842 328.236786,37.990894 268.516663,33.759022 
	C225.081238,30.681114 184.201935,39.288315 145.992371,60.160046 
	C141.460159,62.635731 137.401520,63.199211 132.915237,60.774723 
M117.049614,249.370605 
	C117.698837,256.163971 118.027390,263.006012 119.050545,269.742584 
	C124.705414,306.974792 144.572113,332.411926 181.402939,342.913208 
	C192.552628,346.092194 204.190201,347.551788 215.593323,349.853271 
	C222.368683,351.220764 225.146622,358.216583 220.387268,363.018951 
	C213.103729,370.368317 209.895828,379.297943 207.778305,389.099487 
	C207.178955,391.873779 204.577682,395.307281 202.022583,396.400482 
	C172.631119,408.975922 143.775818,403.960175 125.711182,374.314697 
	C122.095001,368.380280 116.228104,363.784241 111.202789,358.767639 
	C110.107239,357.674011 108.171158,357.422363 106.622200,356.782928 
	C116.575165,366.654205 123.434975,378.123199 128.457581,390.806122 
	C133.795486,404.285187 143.728928,412.749969 157.381271,416.975067 
	C169.813873,420.822662 182.400742,419.990936 194.961853,417.622894 
	C203.644669,415.985962 207.059296,418.732849 207.116577,427.666321 
	C207.176407,436.998627 207.074570,446.334259 207.295181,455.662506 
	C207.456772,462.495514 206.605362,468.960388 201.808472,475.067902 
	C238.509796,483.529846 274.446838,482.718964 308.963043,474.087280 
	C308.190948,466.158936 306.981659,458.853241 306.865662,451.530273 
	C306.588623,434.036774 307.046326,416.531860 306.783203,399.037903 
	C306.594574,386.498932 304.162079,374.469116 295.140137,364.878052 
	C292.389038,361.953430 289.981873,359.166046 291.619659,354.791138 
	C293.232391,350.483185 296.929321,349.760651 300.829163,349.131775 
	C308.873840,347.834473 316.986847,346.787140 324.910492,344.943848 
	C354.313690,338.103912 377.141052,322.864685 388.608643,293.688751 
	C394.469391,278.777740 396.437500,263.142761 396.967346,247.238846 
	C397.737701,224.118134 391.375977,203.523651 375.763397,186.112976 
	C373.198456,183.252640 372.575226,180.173294 373.928528,176.436966 
	C379.406128,161.313919 378.640869,146.084915 374.647430,130.749313 
	C373.590729,126.691193 371.918121,125.546211 367.728821,126.406296 
	C350.906677,129.859940 336.265076,137.959946 322.225189,147.326843 
	C318.291718,149.951126 314.622162,150.488480 310.030334,149.317886 
	C274.639160,140.295731 239.181595,140.221100 203.794968,149.359390 
	C199.390213,150.496872 195.941910,149.761459 192.033340,147.518936 
	C181.668686,141.572235 171.203217,135.717590 160.373871,130.697861 
	C154.484222,127.967827 147.771698,127.013023 141.163879,125.183777 
	C135.474762,142.624405 134.015244,159.058716 139.835968,175.636581 
	C141.161484,179.411682 141.238129,182.788071 138.446655,185.871674 
	C122.352219,203.650375 115.981895,224.753113 117.049614,249.370605 
z"/>
<path fill="#FCFDFE" opacity="1.000000" stroke="none" 
	d="
M33.203194,259.963715 
	C32.523060,217.268326 42.656124,177.307419 64.192764,140.442520 
	C69.953880,130.581070 76.988319,121.441338 83.745598,112.194916 
	C86.438904,108.509483 87.769592,105.024948 85.777206,100.316055 
	C92.579002,93.267326 99.395515,86.621933 106.906708,79.673546 
	C113.851456,84.768906 121.004654,80.419479 121.532417,74.696259 
	C121.706833,72.804787 121.036400,70.835403 120.752258,68.901649 
	C124.570831,66.262367 128.389404,63.623089 132.561615,60.879265 
	C137.401520,63.199211 141.460159,62.635731 145.992371,60.160046 
	C184.201935,39.288315 225.081238,30.681114 268.516663,33.759022 
	C328.236786,37.990894 378.611084,62.002842 420.118073,104.929817 
	C422.623016,107.520432 424.716431,110.508942 426.604858,113.591110 
	C424.928009,112.826393 423.608765,111.826813 422.372864,110.733078 
	C359.752075,55.315136 287.147125,35.466293 206.529327,57.026100 
	C117.696716,80.782814 62.114517,139.974579 39.023731,229.149521 
	C36.409283,239.246323 35.111515,249.684067 33.203194,259.963715 
z"/>
<path fill="#495D67" opacity="1.000000" stroke="none" 
	d="
M120.490997,68.676735 
	C121.036400,70.835403 121.706833,72.804787 121.532417,74.696259 
	C121.004654,80.419479 113.851456,84.768906 107.228958,79.533646 
	C103.876640,71.936935 105.329079,67.039551 111.749062,65.910690 
	C114.346695,65.453934 117.389511,67.528923 120.490997,68.676735 
z"/>
<path fill="#FEFFFF" opacity="1.000000" stroke="none" 
	d="
M117.046288,248.886169 
	C115.981895,224.753113 122.352219,203.650375 138.446655,185.871674 
	C141.238129,182.788071 141.161484,179.411682 139.835968,175.636581 
	C134.015244,159.058716 135.474762,142.624405 141.163879,125.183777 
	C147.771698,127.013023 154.484222,127.967827 160.373871,130.697861 
	C171.203217,135.717590 181.668686,141.572235 192.033340,147.518936 
	C195.941910,149.761459 199.390213,150.496872 203.794968,149.359390 
	C239.181595,140.221100 274.639160,140.295731 310.030334,149.317886 
	C314.622162,150.488480 318.291718,149.951126 322.225189,147.326843 
	C336.265076,137.959946 350.906677,129.859940 367.728821,126.406296 
	C371.918121,125.546211 373.590729,126.691193 374.647430,130.749313 
	C378.640869,146.084915 379.406128,161.313919 373.928528,176.436966 
	C372.575226,180.173294 373.198456,183.252640 375.763397,186.112976 
	C391.375977,203.523651 397.737701,224.118134 396.967346,247.238846 
	C396.437500,263.142761 394.469391,278.777740 388.608643,293.688751 
	C377.141052,322.864685 354.313690,338.103912 324.910492,344.943848 
	C316.986847,346.787140 308.873840,347.834473 300.829163,349.131775 
	C296.929321,349.760651 293.232391,350.483185 291.619659,354.791138 
	C289.981873,359.166046 292.389038,361.953430 295.140137,364.878052 
	C304.162079,374.469116 306.594574,386.498932 306.783203,399.037903 
	C307.046326,416.531860 306.588623,434.036774 306.865662,451.530273 
	C306.981659,458.853241 308.190948,466.158936 308.963043,474.087280 
	C274.446838,482.718964 238.509796,483.529846 201.808472,475.067902 
	C206.605362,468.960388 207.456772,462.495514 207.295181,455.662506 
	C207.074570,446.334259 207.176407,436.998627 207.116577,427.666321 
	C207.059296,418.732849 203.644669,415.985962 194.961853,417.622894 
	C182.400742,419.990936 169.813873,420.822662 157.381271,416.975067 
	C143.728928,412.749969 133.795486,404.285187 128.457581,390.806122 
	C123.434975,378.123199 116.575165,366.654205 106.622200,356.782928 
	C108.171158,357.422363 110.107239,357.674011 111.202789,358.767639 
	C116.228104,363.784241 122.095001,368.380280 125.711182,374.314697 
	C143.775818,403.960175 172.631119,408.975922 202.022583,396.400482 
	C204.577682,395.307281 207.178955,391.873779 207.778305,389.099487 
	C209.895828,379.297943 213.103729,370.368317 220.387268,363.018951 
	C225.146622,358.216583 222.368683,351.220764 215.593323,349.853271 
	C204.190201,347.551788 192.552628,346.092194 181.402939,342.913208 
	C144.572113,332.411926 124.705414,306.974792 119.050545,269.742584 
	C118.027390,263.006012 117.698837,256.163971 117.046288,248.886169 
z"/>
<path fill="#80D8FE" opacity="1.000000" stroke="none" 
	d="
M33.126152,260.412109 
	C35.111515,249.684067 36.409283,239.246323 39.023731,229.149521 
	C62.114517,139.974579 117.696716,80.782814 206.529327,57.026100 
	C287.147125,35.466293 359.752075,55.315136 422.372864,110.733078 
	C423.608765,111.826813 424.928009,112.826393 426.535095,113.941101 
	C433.595398,122.561340 441.099213,130.618530 446.927551,139.745636 
	C470.591370,176.802734 481.779022,217.673676 480.795990,261.498169 
	C478.741058,353.108459 420.425385,434.191620 334.412262,466.115204 
	C326.889771,468.907166 322.802032,466.188721 322.780914,458.101990 
	C322.734802,440.439514 322.769043,422.776184 322.900238,405.114166 
	C323.001587,391.468506 321.399414,378.195709 315.249512,365.780457 
	C314.978699,365.233734 314.987213,364.548645 314.842133,363.807953 
	C322.266693,361.900421 329.532043,360.260956 336.663025,358.164490 
	C380.186249,345.368683 404.076233,315.596710 410.851074,271.440002 
	C413.902161,251.553558 414.592041,231.624344 408.584595,212.028946 
	C405.131683,200.766022 399.623779,190.578232 392.623505,181.109741 
	C391.453552,179.527267 390.804474,176.778198 391.261383,174.894928 
	C396.024170,155.264114 393.780884,136.248383 387.072449,117.463120 
	C385.212555,112.254906 381.616608,110.275391 376.488373,110.007538 
	C366.448578,109.483170 356.808929,111.626556 347.824982,115.680290 
	C337.387115,120.390068 327.456055,126.212563 317.173004,131.284500 
	C314.994415,132.359070 312.049896,133.123642 309.788391,132.601425 
	C274.607452,124.477722 239.493637,124.485741 204.304596,132.567047 
	C201.923126,133.113968 198.678574,132.331497 196.520157,131.030930 
	C181.332092,121.879303 165.868317,113.502060 148.066986,110.587700 
	C147.409683,110.480087 146.760864,110.314667 146.101303,110.227715 
	C132.148239,108.388390 128.892975,110.497543 124.775398,123.975372 
	C119.606560,140.894226 118.551979,157.938446 122.839569,175.240219 
	C123.244003,176.872238 122.799988,179.305878 121.781105,180.611115 
	C104.644829,202.563812 99.331589,227.708939 101.276772,254.903702 
	C102.802414,276.233093 107.003830,296.811371 118.365593,315.331024 
	C133.382477,339.808533 156.226837,353.015656 183.276352,360.076019 
	C185.852478,360.748474 188.442200,361.373352 191.039261,361.959839 
	C193.607513,362.539856 196.193085,363.043243 198.960831,363.619812 
	C196.909134,369.874176 195.113205,375.861053 192.895035,381.687195 
	C192.440750,382.880402 190.517258,383.805878 189.080704,384.289581 
	C168.781738,391.124115 151.720093,385.168701 140.366989,367.003754 
	C131.656082,353.066315 120.578629,342.112213 103.998863,338.748016 
	C98.515312,337.635376 92.284813,337.896515 86.862434,339.314178 
	C78.050865,341.617920 75.639999,350.227936 81.221626,357.442596 
	C83.423836,360.289093 86.189201,362.943268 89.219131,364.862518 
	C100.399254,371.944305 107.961800,381.966827 112.461281,394.073395 
	C122.647560,421.481201 147.994904,437.341095 180.730347,435.447083 
	C183.882416,435.264740 187.031265,435.026489 190.862320,434.768341 
	C190.862320,444.076538 191.341049,453.161255 190.666580,462.159485 
	C190.313065,466.876099 184.624069,469.137207 179.482620,466.768829 
	C166.049759,460.581177 152.128845,455.067078 139.627106,447.310669 
	C84.558540,413.144562 50.428402,363.910461 37.419285,300.433319 
	C34.766167,287.487579 34.445168,274.063904 33.126152,260.412109 
z"/>
</svg>